<svg width="20" height="20" viewBox="0 0 20 20" fill="none" xmlns="http://www.w3.org/2000/svg">
<path d="M14.9973 18.0475C14.0285 18.9725 12.9698 18.825 11.951 18.3875C10.8735 17.9412 9.88479 17.9212 8.74729 18.3875C7.32229 18.9913 6.57229 18.8162 5.72104 18.0475C0.894791 13.1587 1.60729 5.7125 7.08604 5.44C8.42104 5.5075 9.35104 6.15875 10.1323 6.2175C11.2985 5.98375 12.416 5.31375 13.6623 5.40125C15.156 5.5175 16.2835 6.10125 17.0248 7.15125C13.9398 8.96875 14.671 12.9638 17.4998 14.0813C16.936 15.54 16.2035 16.9888 14.9873 18.0575L14.9973 18.0475ZM10.0335 5.38125C9.88354 3.21375 11.6748 1.425 13.7323 1.25C14.0185 3.7575 11.4173 5.625 10.0323 5.38125H10.0335Z" fill="white"/>
</svg>
