<svg width="46" height="46" viewBox="0 0 46 46" fill="none" xmlns="http://www.w3.org/2000/svg">
<path fill-rule="evenodd" clip-rule="evenodd" d="M11.4954 29.6915V34.4902L0 22.9902L2.39761 20.5917L11.4954 29.6947V29.6915ZM16.2923 34.4902H11.4954L22.9908 45.9902L25.3884 43.5917L16.2923 34.4902ZM43.5758 25.3921L45.9751 22.9902L22.9843 -0.00976562L20.5899 2.39866L29.6861 11.4968H24.1896L17.8409 5.15866L15.4433 7.55723L19.3928 11.5067H16.6339V29.358H34.4764V26.598L38.4259 30.5474L40.8235 28.1488L34.4764 21.7975V16.2989L43.5758 25.3921ZM12.6942 10.3008L10.2884 12.7027L12.8634 15.2754L15.2626 12.8768L12.6942 10.3008ZM33.1101 30.7248L30.7125 33.1267L33.2841 35.7027L35.685 33.3008L33.1101 30.7248ZM7.54756 15.4495L5.14666 17.8514L11.4954 24.2027V19.4006L7.54756 15.4495ZM26.5905 34.5001H21.7887L28.1375 40.8514L30.5384 38.4495L26.5905 34.5001Z" fill="white"/>
</svg>
